<svg width="56" height="56" viewBox="0 0 56 56" fill="none" xmlns="http://www.w3.org/2000/svg">
<path d="M48.9542 28C48.9542 39.5979 39.5727 49 28 49C16.4273 49 7.04575 39.5979 7.04575 28C7.04575 16.4019 16.4273 7 28 7C39.5727 7 48.9542 16.4019 48.9542 28Z" fill="white"/>
<path d="M28 7C16.4273 7 7.04575 16.4019 7.04575 28C7.04575 36.8967 12.5665 44.4995 20.3613 47.5593C20.1782 45.8978 20.0126 43.3425 20.4339 41.5286C20.8147 39.8897 22.8911 31.0903 22.8911 31.0903C22.8911 31.0903 22.2643 29.8322 22.2643 27.9724C22.2643 25.0524 23.9531 22.8723 26.0559 22.8723C27.8436 22.8723 28.7071 24.2175 28.7071 25.8304C28.7071 27.6323 27.5625 30.3261 26.9717 32.8225C26.4781 34.9127 28.0176 36.6172 30.0747 36.6172C33.799 36.6172 36.6618 32.6817 36.6618 27.0008C36.6618 21.9727 33.0568 18.4572 27.9091 18.4572C21.9469 18.4572 18.4473 22.939 18.4473 27.5706C18.4473 29.3755 19.141 31.3109 20.0067 32.3631C20.178 32.571 20.2031 32.7532 20.1521 32.9654C19.993 33.6287 19.6395 35.055 19.5701 35.347C19.4787 35.7314 19.2664 35.813 18.8693 35.6278C16.2523 34.4069 14.616 30.5723 14.616 27.4923C14.616 20.8679 19.4186 14.7842 28.4613 14.7842C35.7303 14.7842 41.3792 19.9754 41.3792 26.9129C41.3792 34.1503 36.8259 39.9749 30.5059 39.9749C28.3825 39.9749 26.3864 38.8694 25.7031 37.5635C25.7031 37.5635 24.6524 41.573 24.3976 42.5556C23.9246 44.3797 22.6475 46.666 21.7933 48.0609C23.7539 48.6693 25.8398 49 28 49C39.5727 49 48.9542 39.5979 48.9542 28C48.9542 16.4019 39.5727 7 28 7Z" fill="#E60023"/>
</svg>
